<?xml version="1.0" encoding="utf-8"?>
<!-- Generator: Adobe Illustrator 16.0.0, SVG Export Plug-In . SVG Version: 6.00 Build 0)  -->
<!DOCTYPE svg PUBLIC "-//W3C//DTD SVG 1.1//EN" "http://www.w3.org/Graphics/SVG/1.1/DTD/svg11.dtd">
<svg version="1.1" id="Layer_1" xmlns="http://www.w3.org/2000/svg" xmlns:xlink="http://www.w3.org/1999/xlink" x="0px" y="0px"
	 width="595.28px" height="841.89px" viewBox="0 0 595.28 841.89" enable-background="new 0 0 595.28 841.89" xml:space="preserve">
<g>
	<path fill-rule="evenodd" clip-rule="evenodd" fill="#181818" d="M580.36,775.664c-1.031,3.221-2.438,6.24-4.732,8.777
		c-2.492,2.756-5.491,4.869-8.637,6.795c-1.432,0.877-2.906,1.688-4.296,2.625c-2.089,1.408-3.124,3.377-2.813,5.943
		c0.162,1.338,0.82,2.42,1.9,3.205c1.036,0.754,1.735,0.617,2.249-0.57c0.597-1.375,1.393-2.342,3.012-2.24
		c1.243,0.078,2.249,0.98,2.528,2.205c0.375,1.646-0.421,2.783-1.677,3.67c-1.286,0.91-2.697,1.369-4.3,0.988
		c-0.515-0.123-1.049-0.166-1.764-0.273c0.129,0.959,0.278,1.725,0.325,2.494c0.119,1.98-0.566,3.635-2.233,4.756
		c-1.432,0.963-3.354,0.492-4.185-0.93c-0.814-1.395-0.341-2.959,1.193-3.867c0.341-0.201,0.744-0.299,1.09-0.492
		c0.692-0.389,0.867-1.082,0.406-1.615c-0.657-0.76-1.42-1.576-2.313-1.959c-2.294-0.98-5.152-0.156-6.667,1.889
		c-1.09,1.471-1.982,3.09-2.928,4.666c-2.148,3.584-4.594,6.906-7.816,9.635c-3.629,3.072-7.76,4.307-12.461,3.807
		c-5.826-0.621-10.429-7.117-9.017-12.775c0.054-0.215,0.236-0.398,0.405-0.67c0.993,0.254,0.928,1.225,1.276,1.848
		c2.649,4.73,9.032,5.406,12.435,1.287c-4.004-2.373-4.543-4.941-1.453-7.625c0.316,0.445,0.649,0.863,0.927,1.314
		c1.396,2.264,3.084,2.775,5.465,1.516c0.909-0.48,1.686-1.205,2.558-1.764c2.148-1.377,4.222-2.914,6.498-4.035
		c4.442-2.191,9.025-2.586,13.922-0.008c-0.252-0.691-0.379-1.088-0.539-1.473c-4.177-9.975,4.412-14.825,6.751-23.236
		c0.49-1.764-0.066-3.328-1.983-4.096c-0.357-0.143-0.667-0.406-0.992-0.611c0.87-1.725,2.096-2.303,4.052-2.104
		c2.024,0.207,2.525,1.953,3.356,3.363c4.807-4.223,3.399-9.943-3.461-13.625c0.604-0.275,1.025-0.582,1.486-0.66
		c6.365-1.093,10.132,3.395,12.433,8.566C580.36,772.145,580.36,773.904,580.36,775.664
		C579.329,778.885,580.36,773.904,580.36,775.664z"/>
	<path fill-rule="evenodd" clip-rule="evenodd" fill="#181818" d="M557.345,785.828c-0.339,0-0.75,0.086-1.109-0.014
		c-2.775-0.775-5.205,0.102-7.481,1.574c-3.153,2.041-5.602,4.738-7.183,8.164c-0.746,1.617-1.107,3.262-0.632,5.102
		c0.43,1.658,0.184,2.059-1.501,2.291c-2.117,0.293-4.299,0.492-6.415,0.305c-4.577-0.407-6.215-6.307-2.646-9.129
		c0.741-0.586,1.547-1.09,2.517-1.768c-0.472-0.371-0.873-0.674-1.261-0.992c-1.163-0.959-2.472-1.791-3.446-2.914
		c-1.743-2.008-1.673-4.732-0.063-6.846c1.117-1.467,2.548-2.145,4.398-1.674c1.057,0.27,2.104,0.576,3.565,0.979
		c-0.281-1.064-0.456-1.797-0.668-2.518c-0.74-2.512-0.373-4.17,1.215-5.412c1.844-1.441,4.639-1.748,6.488-0.342
		c1.294,0.982,2.243,2.422,3.325,3.678c0.304,0.354,0.53,0.771,0.945,1.389c0.683-0.959,1.251-1.77,1.834-2.574
		c1.345-1.855,3.228-2.23,5.33-1.836c1.957,0.365,2.965,1.75,3.519,3.537C558.722,778.91,558.36,783.469,557.345,785.828
		C557.006,785.828,558.36,783.469,557.345,785.828z"/>
	<path fill-rule="evenodd" clip-rule="evenodd" fill="#181818" d="M541.996,799.9c-0.79-3.416,1.069-4.746,3.11-5.574
		c0.341-1.395,0.3-2.793,0.978-3.523c0.593-0.641,1.994-0.531,3.173-0.781c1.852-3.342,2.744-3.898,5.457-3.266
		c-0.194,1.219-0.607,2.453-0.521,3.652c0.083,1.156,0.688,2.273,1.055,3.41c0.476,1.48,0.488,2.961,0.162,4.49
		c-0.68,3.191-4.381,2.563-6.933,1.697C546.379,799.295,544.374,798.672,541.996,799.9
		C541.206,796.484,544.374,798.672,541.996,799.9z"/>
</g>
<g>
	<path fill-rule="evenodd" clip-rule="evenodd" fill="#181818" d="M34.284,806.596c-1.031,0.229-1.716,0.453-2.416,0.521
		c-1.867,0.18-3.508-0.383-4.703-1.857c-1.354-1.668-0.818-4.15,0.979-4.889c1.373-0.566,2.646,0.01,3.527,1.596
		c1.01,1.816,2.036,1.912,3.354,0.311c1.454-1.764,1.429-5.045-0.208-6.914c-0.774-0.883-1.787-1.58-2.765-2.256
		c-3.088-2.133-6.329-4.064-9.288-6.359c-3.357-2.605-5.624-6.082-6.817-10.209c-1.397-4.832,0.233-9.826,4.234-12.838
		c2.737-2.061,5.739-2.492,9.296-1.508c-1.748,1.289-3.33,2.26-4.667,3.494c-2.966,2.738-1.147,8.345,1.204,10.689
		c1.002-1.756,1.635-3.752,4.033-3.654c1.498,0.061,2.229,0.375,3.522,1.91c-0.501,0.367-0.979,0.742-1.482,1.084
		c-1.772,1.203-2.313,2.514-1.551,4.516c0.418,1.098,1.097,2.131,1.821,3.066c2.32,3,4.194,6.203,5.363,9.844
		c1.057,3.293,0.862,6.451-0.453,9.594c-0.374,0.365-0.459,0.727-0.258,1.084c7.529-3.037,13.838-0.355,19.753,4.203
		c0.821,0.633,1.646,1.285,2.543,1.795c2.834,1.609,4.452,1.135,6.087-1.684c0.155-0.27,0.352-0.516,0.605-0.881
		c1.6,0.797,2.087,2.139,2.091,3.705c0.006,2.297-1.733,3.035-3.701,3.748c2.101,2.658,4.847,3.035,7.751,2.664
		c3.262-0.414,4.607-3.07,6.077-6.016c0.73,1.59,1.035,2.836,0.833,4.213c-0.827,5.658-5.362,9.467-11.055,9.676
		c-5.964,0.219-10.24-2.785-13.832-6.951c-2.125-2.465-3.757-5.355-5.591-8.068c-0.626-0.928-1.158-1.918-1.793-2.84
		c-1.89-2.74-5.812-3.477-8.366-1.246c-1.467,1.283-1.345,2.018,0.369,2.932c2.465,1.743,2.541,3.479,0.227,5.209
		c-1.296,0.502-2.555,0.285-3.564-0.689C33.29,811.508,33.673,809.189,34.284,806.596C33.253,806.824,34.055,807.57,34.284,806.596z
		"/>
	<path fill-rule="evenodd" clip-rule="evenodd" fill="#181818" d="M59.733,781.074c1.139-0.393,2-0.73,2.886-0.984
		c7.329-2.096,7.608,7.529,2.856,10.592c-0.719,0.465-1.461,0.893-2.498,1.523c0.826,0.559,1.387,0.936,1.946,1.318
		c2.177,1.484,3.126,3.541,2.634,5.705c-0.508,2.229-2.439,3.951-5.028,4.074c-1.291,0.063-8.328,0.958-7.546-2.676
		c0.509-2.359-0.168-4.418-1.256-6.418c-1.603-2.943-3.906-5.234-6.738-6.992c-2.091-1.299-4.316-2.035-6.83-1.453
		c-0.449,0.104-0.942,0.014-1.568,0.014c-0.208-0.459-0.583-0.932-0.623-1.434c-0.274-3.5-1.702-9.861,3.235-11.014
		c2.3-0.537,4.273,0.031,5.702,2.033c0.457,0.641,0.916,1.279,1.611,2.248c0.742-1.094,1.322-1.994,1.949-2.859
		c1.513-2.09,3.469-3.279,6.146-2.889c3.32,0.484,4.839,2.715,4.067,5.99C60.447,778.838,60.112,779.799,59.733,781.074
		C60.872,780.682,60.112,779.799,59.733,781.074z"/>
	<path fill-rule="evenodd" clip-rule="evenodd" fill="#181818" d="M41.205,786.922c2.608-0.771,3.426-0.285,5.421,2.969
		c1.275,0.334,2.667,0.316,3.398,1.004c0.65,0.609,0.568,2,0.846,3.201c3.445,2.275,3.629,2.574,3.133,5.49
		c-0.354-0.041-0.732-0.029-1.073-0.139c-1.675-0.533-3.31-0.451-4.909,0.262c-1.9,0.846-3.832,0.906-5.861,0.49
		c-2.503-1.727-2.896-4.159-1.178-7.297C41.827,789.863,41.966,789.9,41.205,786.922C43.813,786.15,41.966,789.9,41.205,786.922z"/>
</g>
<g>
	<path fill-rule="evenodd" clip-rule="evenodd" fill="#181818" d="M29.712,79.158c-3.792,1.519-6.729,0.746-9.357-1.167
		c-9.787-7.118-2.98-19.481,4.672-24.978c2.592-1.862,5.379-3.454,8.086-5.155c3.045-1.913,4.473-7.146,0.777-9.466
		c-2.15-1.348-2.953,4.504-6.188,2.604c-5.741-3.374,3.68-6.554,6.594-5.874c-1.335-5.693,6.178-10.71,6.383-5.467
		c-0.769,1.664-1.888,3.004-3.358,4.023c-0.842,3.693,6.227,3.496,7.813,2.084c3.701-3.29,6.14-8.62,9.114-12.545
		c1.706-2.252,3.995-3.902,6.47-5.261c7.677-4.22,22.177,1.453,17.537,11.873c-3.004-5.562-8.8-8.007-13.969-3.075
		c1.705,0.937,3.753,1.441,3.815,3.781c0.041,1.54-0.526,2.775-1.901,3.85c-5.904-7.057-11.386,1.588-18.08,3.994
		c-4.126,1.483-7.269,0.67-11.184-0.803c2.791,10.738-2.042,14.227-6.188,23.349c-1.467,3.234,0.587,4.511,2.996,5.989
		c-1.016,1.64-2.446,2.169-4.113,2.047c-2.127-0.156-2.787-1.875-3.455-3.743C20.162,70.294,24.373,76.634,29.712,79.158
		C25.92,80.676,26.628,77.7,29.712,79.158z"/>
	<path fill-rule="evenodd" clip-rule="evenodd" fill="#181818" d="M63.257,49.293c7.05,5.733,7.287,14.004-3.438,11.429
		c0.302,1.069,0.546,1.953,0.8,2.834c0.49,1.706,0.538,3.369-0.878,4.667c-1.565,1.436-3.431,1.985-5.538,1.416
		c-1.627-0.439-2.787-1.517-3.732-2.847c-0.596-0.837-1.136-1.713-1.919-2.904c-1.681,2.42-3.609,5.526-7.162,4.485
		c-2.282-0.669-3.786-2.565-3.825-5.21c-1.233-3.491-0.499-5.958,2.203-7.402c7.132,1.036,17.138-7.117,15.191-14.892
		c-0.854-3.4,11.279-3.429,12.55,1.319c0.521,1.947-0.04,3.645-1.552,4.976C65.132,47.89,64.231,48.53,63.257,49.293
		C64.786,50.537,64.231,48.53,63.257,49.293z"/>
	<path fill-rule="evenodd" clip-rule="evenodd" fill="#181818" d="M53.831,41.88c0.75,2.875,0.3,3.629-3.142,5.688
		c-0.142,3.708-0.277,3.846-3.862,3.802c-1.107,2.118-2.26,4.404-5.58,3.555c0.468-4.091-1.374-7.974-0.58-11.935
		C41.524,38.715,51.564,43.023,53.831,41.88C54.581,44.755,52.12,42.743,53.831,41.88z"/>
</g>
<g>
	<path fill-rule="evenodd" clip-rule="evenodd" fill="#181818" d="M580.36,71.025c-0.825,2.082-1.687,4.121-3.304,5.773
		c-2.727,2.788-6.707,3.835-10.124,2.469c0.279-0.932,1.218-0.92,1.847-1.27c4.628-2.576,5.294-8.82,1.192-12.409
		c-1.109,1.453-1.732,3.556-4.132,3.422c-1.44-0.08-2.59-0.623-3.465-1.968c0.439-0.359,0.777-0.674,1.152-0.935
		c3.878-2.693,1.402-6.186-0.691-8.888c-1.826-2.357-3.322-4.898-4.272-7.732c-1.644-4.901-0.388-6.852,0.372-11.671
		c-0.704,0.209-1.289,0.342-1.844,0.553c-3.129,1.191-6.218,1.147-9.364-0.033c-3.018-1.131-14.38-11.28-16.855-5.351
		c-0.181,0.431-0.484,0.81-0.791,1.31c-4.29-1.582-1.404-6.463,1.564-7.381c-2.267-2.528-4.908-3.331-7.874-2.746
		c-3.02,0.596-4.574,2.971-5.894,6.04c-0.396-0.815-0.726-1.229-0.798-1.683c-0.943-5.887,4.094-11.934,10.063-12.253
		c6.464-0.346,11.213,2.824,15.053,7.502c2.964,3.612,4.791,8.872,8.434,11.877c3.059,2.523,10.679-0.948,6.798-3.063
		c-0.209-0.114-0.453-0.169-0.653-0.295c-1.269-0.803-1.746-2.228-1.198-3.534c0.492-1.173,1.769-1.826,3.167-1.619
		c1.843,0.273,3.305,2.056,3.382,4.386c0.036,1.093-0.265,2.196-0.445,3.543c0.599-0.132,1.157-0.258,1.717-0.377
		c2.468-0.528,7.743,1.095,6.025,5.007c-1.75,2.238-3.506,2.167-5.267-0.215c-0.87-1.747-1.605-1.819-2.974-0.416
		c-1.876,1.925-1.891,5.259,0.173,7.393c1.036,1.072,2.382,1.858,3.632,2.709c6.31,4.301,12.901,8.001,15.011,15.958
		c0.059,0.222,0.239,0.411,0.364,0.615C580.36,67.505,580.36,69.265,580.36,71.025C579.535,73.106,580.36,69.265,580.36,71.025z"/>
	<path fill-rule="evenodd" clip-rule="evenodd" fill="#181818" d="M547.406,64.034c-0.484,0.708-0.795,1.247-1.188,1.72
		c-0.813,0.98-1.568,2.043-2.527,2.862c-2.064,1.762-5.303,1.658-7.282-0.169c-1.115-1.029-1.713-2.336-1.309-3.887
		c0.338-1.297,0.79-2.565,1.242-4.006c-6.272,1.764-14.298-3.209-6.535-9.096c0.938-0.711,1.971-1.299,3.163-2.075
		c-2.677-1.864-5.167-3.483-4.413-7.241c0.414-2.064,1.875-3.199,3.808-3.517c2.838-0.467,5.705-0.558,8.565,0.588
		c0,0.676-0.017,1.289,0.003,1.899c0.041,1.253-0.204,2.618,0.207,3.739c1.977,5.398,7.971,12.428,14.577,10.978
		c1.509-0.332,2.055-0.035,2.199,1.414c0.381,3.822,1.5,10.1-3.651,11.231C550.838,69.226,549.129,66.327,547.406,64.034
		C546.922,64.742,548.148,65.021,547.406,64.034z"/>
	<path fill-rule="evenodd" clip-rule="evenodd" fill="#181818" d="M555.043,54.635c-2.029,0.534-9.642-3.201-9.662-5.591
		c-0.004-0.464,0.073-0.929,0.109-1.338c-3.711-2.271-4.262-3.226-3.213-5.708c2.164,1.087,4.182,0.442,6.367-0.294
		c3.205-1.575,5.541-1.073,7.009,1.508c0,1.647,0.055,3.382-0.427,4.92C554.557,50.276,553.436,52.275,555.043,54.635
		C552.408,55.328,553.436,52.275,555.043,54.635z"/>
</g>
<path fill-rule="evenodd" clip-rule="evenodd" fill="#181818" d="M478.12,15.825c-0.063,3.063-2.355,16.7,3.004,16.745
	c1.889,0.016,17.793-2.176,18.123,1.764c0.154,1.828,0.315,3.667,0.658,5.467c2.458,12.884,7.557,24.62,16.122,34.589
	c11.959,13.917,27.027,22.458,45.334,24.986c2.502,0.346,2.727,0.56,2.736,3.213c0.017,4.794-0.009,9.589,0.013,14.384
	c0.012,2.505,0.228,2.791,2.651,2.99c4.529,0.373,9.065,0.66,13.599,0.982c0,200.48,0,400.959,0,601.44
	c-3.589,0.156-7.181,0.273-10.767,0.48c-2.968,0.17-3.176,0.436-3.185,3.5c-0.011,3.775,2.673,15.452-2.82,16.131
	c-4.766,0.586-9.478,1.404-14.073,2.846c-11.019,3.461-20.766,9.082-29.131,17.055c-10.23,9.754-16.938,21.557-20.322,35.252
	c-0.573,2.322-0.866,4.713-1.296,7.07c-0.354,1.943-0.453,2.078-2.488,2.094c-4.959,0.035-9.918,0.014-14.876,0.016
	c-0.56,0-1.12-0.014-1.68,0.01c-1.936,0.076-2.32,0.314-2.492,2.152c-0.385,4.129-0.819,8.266-0.934,12.408
	c-0.131,4.732-0.245,4.223-4.223,4.223c-116.767,0.006-233.533,0.004-350.3,0.002c-4.441,0-4.092,0.273-4.166-4.178
	c-0.057-3.352-0.248-6.701-0.455-10.047c-0.111-1.797-0.549-2.193-2.418-2.217c-3.838-0.047-7.678-0.018-11.517-0.023
	c-0.64,0-1.279-0.02-1.919-0.025c-1.33-0.012-1.742-0.783-1.84-2.004c-0.357-4.473-1.185-8.865-2.427-13.18
	c-3.058-10.615-8.194-20.064-15.507-28.383c-6.711-7.635-14.693-13.502-23.85-17.799c-5.967-2.801-12.267-4.594-18.766-5.658
	c-3.714-0.607-3.727-0.555-3.73-4.332c-0.005-4.318,0.019-8.639-0.014-12.957c-0.017-2.322-0.303-2.549-2.564-2.875
	c-5.867-0.848-11.752-1.313-17.683-1c0-200.801,0-401.601,0-602.4c5.867-0.021,11.609-0.042,17.453-0.544
	c6.051-0.516-2.958-18.234,4.308-19.044c16.338-1.821,30.295-8.761,41.998-20.112c9.842-9.545,16.518-21.076,19.879-34.429
	c0.582-2.318,0.921-4.698,1.34-7.056c0.377-2.13,0.591-2.374,2.801-2.392c2.648-0.022,15.229,2.191,15.801-1.953
	c0.229-1.661,0.492-3.325,0.578-4.996c0.211-4.063,0.328-8.13,0.482-12.195C239.08,15.825,358.6,15.825,478.12,15.825
	C478.02,20.695,358.6,15.825,478.12,15.825z M101.072,807.836c1.243,0,2.188,0,3.135,0c3.92,0.002,7.841-0.021,11.76,0.02
	c1.798,0.021,1.961,0.104,2.152,1.838c0.367,3.332,0.602,6.678,0.851,10.021c0.082,1.115,0.025,2.238,0.057,3.357
	c0.027,0.963,0.555,1.465,1.51,1.492c0.959,0.027,1.919,0.041,2.879,0.041c115.678,0.002,231.354,0,347.032,0
	c0.72,0,1.44,0.02,2.159-0.012c1.897-0.08,2.033-0.143,2.223-2.031c0.392-3.91-1.327-17.073,4.399-17.094
	c5.119-0.02,10.239,0.004,15.359-0.012c2.672-0.01,2.81-0.17,3.237-2.73c2.34-14,8.096-26.422,17.59-36.975
	c12.671-14.082,28.649-21.949,47.328-24.51c2.493-0.342,2.586-0.404,2.632-2.99c0.077-4.718-0.027-9.439,0.023-14.158
	c0.021-1.795,0.114-1.973,1.84-2.166c2.696-0.301,5.412-0.533,8.122-0.578c4.541-0.074,4.123,0.043,4.123-4.254
	c0.003-196.955,0.003-393.91,0.003-590.865c0-2.091,0.549-4.113-2.116-4.312c-3.979-0.298-7.961-0.594-11.937-0.94
	c-2.225-0.193-2.381-0.378-2.393-2.666c-0.025-4.56-0.008-9.12-0.01-13.679c-0.003-6.043-21.656-9.354-27.346-12.504
	c-8.717-4.826-16.131-11.181-22.263-19.054c-4.385-5.63-15.616-39.408-18.478-39.417c-3.153-0.009-16.803,2.662-17.299-2.281
	c-0.541-5.376,1.757-14.226-5.319-14.226c-16.525,0-33.051,0-49.576,0c-33.051,0-66.102-0.001-99.152-0.001
	c-66.101,0-132.202,0-198.304,0c-2.465,0-4.162-0.467-4.411,2.558c-0.303,3.667,1.259,16.273-4.254,16.311
	c-5.772,0.038-14.469-2.898-15.855,3.946c-1.482,7.33-3.74,14.375-7.257,21.011c-4.825,9.105-11.231,16.91-19.222,23.373
	c-9.691,7.837-20.621,13.066-32.99,15.11c-1.34,0.221-2.664,0.555-4.01,0.713c-6.14,0.722,2.739,18.276-4.035,18.878
	c-4.134,0.367-8.271,0.771-12.416,0.919c-4.852,0.173-4.485-0.457-4.486,4.589c-0.002,196.795-0.002,393.59,0.004,590.387
	c0,4.615-0.602,4.465,4.749,4.693c4.532,0.195,9.042,0.938,13.56,1.463c4.007,0.468,1.833,14.733,1.84,16.713
	c0.01,2.691,0.254,2.918,2.991,3.236c1.109,0.129,2.225,0.27,3.312,0.518c5.789,1.314,11.443,3.053,16.742,5.768
	c21.576,11.047,34.986,28.379,39.989,52.139C100.103,802.119,100.521,804.793,101.072,807.836
	C102.315,807.836,100.521,804.793,101.072,807.836z"/>
<path fill-rule="evenodd" clip-rule="evenodd" fill="#181818" d="M122.773,40.585c0.377-1.859,0.831-3.478,1.015-5.127
	c0.736-6.575-1.69-14.249,6.27-14.249c112.475,0,224.95-0.001,337.425,0.01c5.521,0.002,4.45,0.298,5.057,4.328
	c0.498,3.313,0.808,6.655,1.236,9.979c1.123,8.705,19.142-2.933,20.743,5.655c1.581,8.481,4.365,16.529,8.53,24.092
	c5.793,10.519,13.889,19.618,23.748,26.485c5.742,3.999,31.523,11.071,31.545,16.32c0.018,4.473-2.824,16.061,3.309,16.771
	c2.677,0.31,13.432-0.655,13.773,3.295c0.062,0.715,0.032,1.439,0.032,2.159c0.001,194.262-2.368,388.689,0.001,582.934
	c0.052,4.125-0.278,3.723-3.858,3.873c-3.025,0.125-6.034,0.613-9.054,0.9c-1.403,0.135-1.877,0.865-1.859,2.229
	c0.052,4,0.015,8,0.013,12c0,0.801,0.011,1.6-0.004,2.4c-0.042,2.322-0.228,2.568-2.533,2.934c-9.43,1.494-18.26,4.695-26.511,9.455
	c-12.772,7.365-22.721,17.506-29.807,30.471c-3.718,6.803-6.19,14.023-7.84,21.561c-0.41,1.873-0.582,2.063-2.58,2.076
	c-4.959,0.037-9.919,0.016-14.879,0.02c-6.514,0-5.009,9.199-5.604,13.873c0.588,2.394-0.084,4.134-2.016,5.223
	c-0.64,0.014-1.279,0.031-1.919,0.031c-113.355,0-226.711,0-340.065,0c-3.354,0-3.435,0.002-3.812-3.314
	c-0.361-3.172-0.499-6.371-0.791-9.553c-0.369-4.016-0.393-4.014-4.453-4.016c-3.439-0.002-6.879,0.012-10.318-0.012
	c-0.859-0.006-1.718-0.135-2.664-0.215c-0.515-2.338-1.002-4.512-1.47-6.689c-2.212-10.318-6.53-19.703-12.633-28.273
	c-7.127-10.006-16.138-17.914-26.979-23.684c-6.028-3.207-12.394-5.545-19.09-6.98c-4.203-0.9-3.932-0.545-3.936-4.744
	c-0.005-4.16,0.012-8.32-0.008-12.48c-0.012-2.527-0.023-2.664-2.365-3.027c-4.258-0.658-8.54-1.148-12.813-1.707
	c-1.188-0.156-2.373-0.332-3.563-0.463c-1.305-0.875-1.765-2.061-1.38-3.557c-0.002-194.391-0.002-388.782,0-583.172
	c0-3.809,0.12-3.806,4.076-4.123c4.453-0.356,8.893-0.906,13.329-1.436c1.614-0.192,1.786-0.43,1.802-2.23
	c0.037-4.4,0.014-8.8,0.019-13.2c-0.317-1.349,0.071-2.431,1.165-3.247c0.614-0.322,1.382-0.361,2.088-0.496
	c13.012-2.491,24.529-8.121,34.686-16.572c11.532-9.597,19.712-21.521,24.51-35.734c0.918-2.722,1.566-5.536,2.313-8.315
	c0.589-2.19,0.662-2.302,2.915-2.317c4.079-0.027,8.159-0.003,12.239-0.016C120.675,40.709,121.544,40.64,122.773,40.585
	C123.15,38.726,121.544,40.64,122.773,40.585z M126.501,22.846c-0.104,0.765-0.181,1.31-0.25,1.857
	c-1.445,11.256,1.349,17.063-10.649,17.056c-7.803-0.004-8.762-1.326-10.87,6.046c-4.702,16.4-13.615,30.069-26.834,40.85
	c-10.095,8.234-21.568,13.664-34.369,16.226c-2.482,0.497-2.59,0.596-2.604,3.125c-0.024,4.08-0.005,8.16-0.01,12.239
	c-0.004,3.475,0.003,3.562-3.522,3.978c-3.963,0.467-7.948,0.749-11.922,1.128c-8.161,0.778-3.724,28.743-3.724,35.143
	c0,94.166,0,188.331,0,282.497c0,23.982-6.187,270.003,1.626,270.978c0.555,0.068,1.104,0.174,1.658,0.248
	c4.827,0.645,9.661,1.24,14.479,1.947c2.566,0.375,2.696,0.611,2.705,3.275c0.018,4.641-0.01,9.279,0.017,13.92
	c0.013,2.188,0.097,2.252,2.125,2.807c0.308,0.084,0.626,0.129,0.938,0.203c15.028,3.533,27.972,10.787,38.763,21.83
	c7.358,7.529,12.986,16.213,16.874,25.992c1.892,4.76,3.431,9.645,4.257,14.717c0.496,3.047,0.52,3.139,3.604,3.146
	c3.52,0.008,7.039,0.002,10.56,0.004c0.56,0,1.12,0.018,1.679,0.02c1.144,0,1.785,0.551,1.92,1.699
	c0.445,3.805,1.037,7.598,1.307,11.416c0.262,3.695,0.178,3.771,3.803,3.771c112.556,0.002,225.11,0.002,337.666,0
	c0.72,0,1.439-0.018,2.159-0.035c0.937-0.021,1.487-0.467,1.591-1.43c0.411-3.8-0.374-17.7,4.646-17.734
	c4.72-0.035,9.439-0.014,14.159-0.016c0.8,0,1.601,0.02,2.399-0.01c1.881-0.07,1.937-0.131,2.409-1.957
	c0.621-2.398,1.133-4.834,1.894-7.188c6.053-18.727,17.548-33.201,34.261-43.535c8.178-5.055,17.016-8.459,26.463-10.289
	c3.921-0.76,3.912-0.805,3.914-4.895c0.002-4.08-0.022-8.16,0.018-12.238c0.021-2.104,0.178-2.324,2.266-2.627
	c3.396-0.492,6.808-0.879,10.216-1.277c1.738-0.201,1.9-0.309,1.991-2.008c0.047-0.877,0.019-1.758,0.019-2.639
	c0-193.111,0-386.225,0-579.336c0-2.436,0.596-4.244-2.38-4.522c-3.577-0.334-7.173-0.617-10.708-1.223
	c-3.822-0.654-3.801-0.168-3.789-4.53c0.009-3.359,2.554-15.208-2.135-16.234c-1.171-0.257-2.361-0.44-3.519-0.749
	c-29.586-7.872-52.426-32.191-58.096-62.345c-0.995-5.285-11.856-2.655-15.761-2.723c-4.963-0.087-4.641,1.076-5.334-4.868
	c-0.398-3.411-0.725-6.831-1.01-10.252c-1.05-1.819-2.604-2.4-4.664-1.744c-111.915-0.001-223.831-0.001-335.746,0
	C129.476,22.453,127.981,22.548,126.501,22.846C126.397,23.61,127.264,22.731,126.501,22.846z"/>
</svg>
