<svg version="1.1"
	xmlns="http://www.w3.org/2000/svg"
	xmlns:xlink="http://www.w3.org/1999/xlink"
	x="0px" y="0px"
	viewBox="0 0 1000 1000"
	enable-background="new 0 0 1000 1000"
	xml:space="preserve">
<g><path fill="white" d="M619.5,899.5l350-350c27.3-27.3,27.3-71.7,0-99l-350-350c-27.3-27.3-71.7-27.3-99,0c-27.3,27.3-27.3,71.7,0,99L751,430H80c-38.7,0-70,31.3-70,70c0,38.7,31.3,70,70,70h671L520.5,800.5C506.8,814.2,500,832.1,500,850c0,17.9,6.8,35.8,20.5,49.5C547.8,926.8,592.2,926.8,619.5,899.5L619.5,899.5z"/></g>
</svg>