<?xml version="1.0" encoding="utf-8"?>
<!-- Generator: Adobe Illustrator 16.0.0, SVG Export Plug-In . SVG Version: 6.00 Build 0)  -->
<!DOCTYPE svg PUBLIC "-//W3C//DTD SVG 1.1 Tiny//EN" "http://www.w3.org/Graphics/SVG/1.1/DTD/svg11-tiny.dtd">
<svg version="1.1" baseProfile="tiny" id="Layer_1" xmlns="http://www.w3.org/2000/svg" xmlns:xlink="http://www.w3.org/1999/xlink"
	 x="0px" y="0px" width="500px" height="70px" viewBox="0 0 500 70" xml:space="preserve">
<g>
	<path d="M492.07,8.317v53.57h-13.037V39.548h-20.316v22.339h-12.938V8.317h12.938v20.72h20.316V8.317H492.07z"/>
	<path d="M50.987,13.168c4.447,3.639,7.377,8.49,8.692,14.554H45.933c-1.011-2.527-2.527-4.447-4.649-5.862
		c-2.122-1.415-4.548-2.123-7.479-2.123c-3.84,0-6.873,1.415-9.198,4.145c-2.325,2.83-3.538,6.468-3.538,11.118
		s1.213,8.39,3.538,11.118s5.357,4.145,9.198,4.145c2.932,0,5.357-0.708,7.479-2.122c2.123-1.416,3.639-3.336,4.649-5.762h13.746
		c-1.314,6.063-4.245,10.915-8.692,14.555c-4.447,3.638-10.108,5.457-16.981,5.457c-5.255,0-9.804-1.111-13.746-3.436
		c-3.942-2.325-6.974-5.56-9.097-9.703c-2.123-4.145-3.234-8.895-3.234-14.151s1.112-10.006,3.234-14.15
		c2.123-4.144,5.154-7.378,9.097-9.703c4.043-2.325,8.591-3.437,13.847-3.437C40.879,7.811,46.54,9.631,50.987,13.168z"/>
	<path d="M195.319,18.626v11.219h18.093v9.805h-18.093v11.927h20.417v10.411h-33.355V8.418h33.355v10.309h-20.417V18.626z"/>
	<path d="M279.715,13.168c4.447,3.639,7.379,8.49,8.693,14.554h-13.746c-1.01-2.527-2.527-4.447-4.65-5.862
		c-2.121-1.415-4.547-2.123-7.479-2.123c-3.842,0-6.873,1.415-9.199,4.145c-2.324,2.83-3.536,6.468-3.536,11.118
		s1.212,8.39,3.536,11.118c2.326,2.729,5.357,4.145,9.199,4.145c2.932,0,5.357-0.708,7.479-2.122
		c2.123-1.416,3.641-3.336,4.65-5.762h13.746c-1.314,6.063-4.246,10.915-8.693,14.555c-4.447,3.638-10.107,5.457-16.98,5.457
		c-5.254,0-9.805-1.111-13.745-3.436c-3.942-2.325-6.974-5.56-9.096-9.703c-2.123-4.145-3.234-8.895-3.234-14.151
		s1.112-10.006,3.234-14.15c2.122-4.144,5.154-7.378,9.096-9.703c4.042-2.325,8.591-3.437,13.745-3.437
		C269.607,7.811,275.268,9.631,279.715,13.168z"/>
	<path d="M323.176,61.887l-11.623-20.216h-2.93v20.216h-12.938V8.317h22.135c4.246,0,7.883,0.707,10.814,2.223
		c2.932,1.517,5.156,3.437,6.57,6.065c1.518,2.527,2.223,5.458,2.223,8.793c0,3.942-1.111,7.176-3.232,9.905
		c-2.123,2.729-5.256,4.65-9.4,5.661l12.734,21.125h-14.354V61.887z M308.623,32.776h8.086c2.627,0,4.447-0.606,5.66-1.719
		c1.213-1.111,1.818-2.83,1.818-5.053c0-2.123-0.605-3.841-1.818-5.054s-3.135-1.819-5.66-1.819h-8.086V32.776z"/>
	<path d="M356.531,8.013v30.928c0,3.538,0.809,6.268,2.426,8.087c1.617,1.92,3.941,2.83,6.975,2.83s5.357-0.91,6.973-2.83
		c1.617-1.819,2.428-4.549,2.428-8.087V8.013h12.936v30.928c0,5.054-1.01,9.301-2.93,12.736c-2.021,3.437-4.65,6.063-8.086,7.783
		c-3.436,1.718-7.277,2.628-11.523,2.628c-4.346,0-8.084-0.81-11.42-2.628c-3.338-1.72-5.861-4.347-7.783-7.783
		c-1.922-3.537-2.83-7.783-2.83-12.836V8.013H356.531z"/>
	<path d="M433.145,54.812c-1.414,2.426-3.537,4.244-6.367,5.659c-2.83,1.416-6.164,2.122-10.209,2.122
		c-6.064,0-11.016-1.516-14.857-4.447c-3.941-2.93-6.064-7.075-6.367-12.33h13.848c0.201,2.021,0.908,3.639,2.123,4.751
		c1.211,1.212,2.828,1.718,4.75,1.718c1.719,0,3.031-0.506,3.941-1.416c0.91-0.908,1.414-2.122,1.414-3.638
		c0-1.415-0.402-2.527-1.313-3.438c-0.91-0.908-2.021-1.616-3.336-2.224c-1.314-0.605-3.133-1.313-5.457-2.122
		c-3.438-1.212-6.168-2.325-8.289-3.335c-2.123-1.112-4.043-2.73-5.559-4.852c-1.518-2.123-2.324-4.952-2.324-8.389
		c0-3.234,0.807-5.963,2.426-8.288c1.617-2.325,3.84-4.145,6.67-5.357s6.166-1.819,9.805-1.819c5.963,0,10.713,1.415,14.25,4.245
		c3.539,2.831,5.459,6.772,5.965,11.725h-14.049c-0.305-1.819-0.912-3.133-1.922-4.245c-1.01-1.011-2.426-1.517-4.244-1.517
		c-1.518,0-2.729,0.405-3.639,1.213c-0.91,0.809-1.416,2.021-1.416,3.538c0,1.314,0.406,2.325,1.213,3.234
		c0.809,0.91,1.92,1.618,3.135,2.123c1.211,0.607,3.131,1.314,5.457,2.122c3.436,1.213,6.268,2.325,8.389,3.438
		c2.123,1.112,4.043,2.83,5.66,4.953c1.617,2.224,2.324,5.054,2.324,8.489C435.268,49.757,434.561,52.386,433.145,54.812z"/>
	<g>
		<path d="M117.088,20.951c-2.426-4.144-5.66-7.479-9.703-9.804c-4.144-2.325-8.692-3.538-13.746-3.538
			c-5.053,0-9.602,1.213-13.645,3.538c-4.145,2.325-7.378,5.66-9.805,9.804c-2.426,4.145-3.639,8.894-3.639,14.15
			s1.213,10.006,3.639,14.151c2.426,4.244,5.66,7.479,9.805,9.804c4.144,2.325,8.692,3.537,13.645,3.537
			c5.054,0,9.603-1.212,13.646-3.537c4.144-2.324,7.378-5.66,9.804-9.804c2.426-4.245,3.639-8.895,3.639-14.151
			C120.626,29.845,119.413,25.095,117.088,20.951z M107.891,37.122L107.891,37.122l-2.021,0.91
			c-0.708,0.304-1.314,1.011-1.618,1.719l-0.202,0.505c-0.303,0.708-0.303,1.516,0,2.224l0.91,2.527l0,0l-2.527,2.83l0,0
			l-1.921-0.91c-0.808-0.404-1.819-0.404-2.627,0c-0.708,0.304-1.314,1.012-1.617,1.718l-0.91,2.527l0,0h-3.639l0,0l-0.91-2.325
			c-0.303-0.808-0.91-1.414-1.617-1.718c-0.809-0.404-1.819-0.404-2.628,0l-1.92,0.91l0,0l-2.426-3.032l0.909-2.527
			c0.304-0.708,0.304-1.516,0-2.224l-0.202-0.505c-0.303-0.81-0.909-1.415-1.617-1.719l-2.021-0.91l0,0V33.08l0,0l0,0l2.021-0.911
			c0.708-0.302,1.314-1.01,1.617-1.718l0.202-0.505c0.304-0.708,0.304-1.516,0-2.224l-0.909-2.527l0,0l2.527-2.83l0,0l1.92,0.91
			c0.81,0.405,1.82,0.405,2.628,0c0.707-0.303,1.314-1.011,1.617-1.718l0.91-2.325h3.538l0,0l0.91,2.325
			c0.303,0.808,0.909,1.415,1.617,1.718c0.809,0.405,1.819,0.405,2.627,0l1.921-0.91l0,0c0,0,1.819,1.819,2.527,2.83l0,0
			l-0.91,2.426c-0.303,0.708-0.303,1.516,0,2.223l0.202,0.506c0.304,0.809,0.91,1.415,1.618,1.82l2.021,0.91l0,0V37.122
			L107.891,37.122z"/>
		<g>
			<path d="M90.203,31.766c0-0.202-0.101-0.303-0.202-0.505c-0.101-0.101-0.303-0.203-0.505-0.203s-0.303,0.102-0.506,0.203
				l-3.335,3.335c-0.101,0.102-0.203,0.304-0.203,0.506s0.102,0.304,0.203,0.506l3.335,3.334c0.304,0.304,0.708,0.304,0.91,0
				c0.202-0.302,0.303-0.706,0-0.909l-2.729-2.931L90,32.271C90.102,32.069,90.203,31.968,90.203,31.766z"/>
			<path d="M98.086,31.26c-0.303-0.303-0.707-0.303-0.91,0c-0.303,0.303-0.303,0.708,0,0.91l2.831,2.83l-2.831,2.83
				c-0.202,0.202-0.202,0.405-0.202,0.607s0.202,0.404,0.506,0.504c0.202,0.102,0.505,0,0.606-0.201l3.336-3.335
				c0.101-0.102,0.202-0.304,0.202-0.506s-0.101-0.304-0.202-0.505L98.086,31.26z"/>
			<path d="M95.055,29.745c-0.405-0.101-0.708,0.1-0.809,0.505l-2.729,9.4c-0.101,0.404,0.101,0.708,0.505,0.81
				c0.102,0,0.102,0,0.202,0c0.303,0,0.607-0.203,0.607-0.506l2.729-9.4C95.661,30.25,95.459,29.845,95.055,29.745z"/>
		</g>
	</g>
	<path d="M171.668,21.052c-2.224-4.043-5.458-7.176-9.703-9.4c-4.246-2.223-9.197-3.335-14.959-3.335h-20.214v53.57h20.214
		c5.762,0,10.714-1.113,14.858-3.438c4.245-2.325,7.479-5.459,9.703-9.501c2.224-4.043,3.336-8.692,3.336-13.948
		C175.004,29.745,173.892,25.095,171.668,21.052z M159.135,47.028h-19.507V21.961h13.948l5.559,5.155V47.028z"/>
</g>
</svg>
