<?xml version="1.0" encoding="utf-8"?>
<!-- Generator: Adobe Illustrator 21.0.0, SVG Export Plug-In . SVG Version: 6.00 Build 0)  -->
<svg version="1.1" id="Layer_1" xmlns="http://www.w3.org/2000/svg" xmlns:xlink="http://www.w3.org/1999/xlink" x="0px" y="0px"
	 viewBox="0 0 500 64" style="enable-background:new 0 0 500 64;" xml:space="preserve">
<g>
	<path d="M489.5,5.5v53h-12.9V36.4h-20.1v22.1h-12.8v-53h12.8V26h20.1V5.5H489.5z"/>
	<path d="M53.1,10.3c4.4,3.6,7.3,8.4,8.6,14.4H48.1c-1-2.5-2.5-4.4-4.6-5.8c-2.1-1.4-4.5-2.1-7.4-2.1c-3.8,0-6.8,1.4-9.1,4.1
		c-2.3,2.8-3.5,6.4-3.5,11c0,4.6,1.2,8.3,3.5,11c2.3,2.7,5.3,4.1,9.1,4.1c2.9,0,5.3-0.7,7.4-2.1c2.1-1.4,3.6-3.3,4.6-5.7h13.6
		c-1.3,6-4.2,10.8-8.6,14.4c-4.4,3.6-10,5.4-16.8,5.4c-5.2,0-9.7-1.1-13.6-3.4c-3.9-2.3-6.9-5.5-9-9.6c-2.1-4.1-3.2-8.8-3.2-14
		s1.1-9.9,3.2-14c2.1-4.1,5.1-7.3,9-9.6C26.7,6.1,31.2,5,36.4,5C43.1,5,48.7,6.8,53.1,10.3z"/>
	<path d="M195.9,15.7v11.1h17.9v9.7h-17.9v11.8h20.2v10.3h-33v-53h33v10.2H195.9z"/>
	<path d="M279.4,10.3c4.4,3.6,7.3,8.4,8.6,14.4h-13.6c-1-2.5-2.5-4.4-4.6-5.8c-2.1-1.4-4.5-2.1-7.4-2.1c-3.8,0-6.8,1.4-9.1,4.1
		c-2.3,2.8-3.5,6.4-3.5,11c0,4.6,1.2,8.3,3.5,11c2.3,2.7,5.3,4.1,9.1,4.1c2.9,0,5.3-0.7,7.4-2.1c2.1-1.4,3.6-3.3,4.6-5.7H288
		c-1.3,6-4.2,10.8-8.6,14.4c-4.4,3.6-10,5.4-16.8,5.4c-5.2,0-9.7-1.1-13.6-3.4c-3.9-2.3-6.9-5.5-9-9.6c-2.1-4.1-3.2-8.8-3.2-14
		s1.1-9.9,3.2-14c2.1-4.1,5.1-7.3,9-9.6C253,6.1,257.5,5,262.6,5C269.4,5,275,6.8,279.4,10.3z"/>
	<path d="M322.4,58.5l-11.5-20H308v20h-12.8v-53h21.9c4.2,0,7.8,0.7,10.7,2.2c2.9,1.5,5.1,3.4,6.5,6c1.5,2.5,2.2,5.4,2.2,8.7
		c0,3.9-1.1,7.1-3.2,9.8c-2.1,2.7-5.2,4.6-9.3,5.6l12.6,20.9H322.4z M308,29.7h8c2.6,0,4.4-0.6,5.6-1.7c1.2-1.1,1.8-2.8,1.8-5
		c0-2.1-0.6-3.8-1.8-5c-1.2-1.2-3.1-1.8-5.6-1.8h-8V29.7z"/>
	<path d="M355.4,5.2v30.6c0,3.5,0.8,6.2,2.4,8c1.6,1.9,3.9,2.8,6.9,2.8s5.3-0.9,6.9-2.8c1.6-1.8,2.4-4.5,2.4-8V5.2h12.8v30.6
		c0,5-1,9.2-2.9,12.6c-2,3.4-4.6,6-8,7.7c-3.4,1.7-7.2,2.6-11.4,2.6c-4.3,0-8-0.8-11.3-2.6c-3.3-1.7-5.8-4.3-7.7-7.7
		c-1.9-3.5-2.8-7.7-2.8-12.7V5.2H355.4z"/>
	<path d="M431.2,51.5c-1.4,2.4-3.5,4.2-6.3,5.6c-2.8,1.4-6.1,2.1-10.1,2.1c-6,0-10.9-1.5-14.7-4.4c-3.9-2.9-6-7-6.3-12.2h13.7
		c0.2,2,0.9,3.6,2.1,4.7c1.2,1.2,2.8,1.7,4.7,1.7c1.7,0,3-0.5,3.9-1.4c0.9-0.9,1.4-2.1,1.4-3.6c0-1.4-0.4-2.5-1.3-3.4
		c-0.9-0.9-2-1.6-3.3-2.2c-1.3-0.6-3.1-1.3-5.4-2.1c-3.4-1.2-6.1-2.3-8.2-3.3c-2.1-1.1-4-2.7-5.5-4.8c-1.5-2.1-2.3-4.9-2.3-8.3
		c0-3.2,0.8-5.9,2.4-8.2c1.6-2.3,3.8-4.1,6.6-5.3c2.8-1.2,6.1-1.8,9.7-1.8c5.9,0,10.6,1.4,14.1,4.2c3.5,2.8,5.4,6.7,5.9,11.6h-13.9
		c-0.3-1.8-0.9-3.1-1.9-4.2c-1-1-2.4-1.5-4.2-1.5c-1.5,0-2.7,0.4-3.6,1.2c-0.9,0.8-1.4,2-1.4,3.5c0,1.3,0.4,2.3,1.2,3.2
		c0.8,0.9,1.9,1.6,3.1,2.1c1.2,0.6,3.1,1.3,5.4,2.1c3.4,1.2,6.2,2.3,8.3,3.4c2.1,1.1,4,2.8,5.6,4.9c1.6,2.2,2.3,5,2.3,8.4
		C433.3,46.5,432.6,49.1,431.2,51.5z"/>
	<g>
		<path d="M118.5,18c-2.4-4.1-5.6-7.4-9.6-9.7c-4.1-2.3-8.6-3.5-13.6-3.5c-5,0-9.5,1.2-13.5,3.5c-4.1,2.3-7.3,5.6-9.7,9.7
			c-2.4,4.1-3.6,8.8-3.6,14c0,5.2,1.2,9.9,3.6,14c2.4,4.2,5.6,7.4,9.7,9.7c4.1,2.3,8.6,3.5,13.5,3.5c5,0,9.5-1.2,13.5-3.5
			c4.1-2.3,7.3-5.6,9.7-9.7c2.4-4.2,3.6-8.8,3.6-14C122,26.8,120.8,22.1,118.5,18z M109.4,34C109.4,34,109.4,34,109.4,34l-2,0.9
			c-0.7,0.3-1.3,1-1.6,1.7l-0.2,0.5c-0.3,0.7-0.3,1.5,0,2.2l0.9,2.5v0l-2.5,2.8c0,0,0,0,0,0l-1.9-0.9c-0.8-0.4-1.8-0.4-2.6,0
			c-0.7,0.3-1.3,1-1.6,1.7L97,47.9l0,0h-3.6l0,0l-0.9-2.3c-0.3-0.8-0.9-1.4-1.6-1.7c-0.8-0.4-1.8-0.4-2.6,0l-1.9,0.9l0,0L84,41.8
			l0.9-2.5c0.3-0.7,0.3-1.5,0-2.2l-0.2-0.5c-0.3-0.8-0.9-1.4-1.6-1.7l-2-0.9l0,0v-4l0,0h0l2-0.9c0.7-0.3,1.3-1,1.6-1.7l0.2-0.5
			c0.3-0.7,0.3-1.5,0-2.2L84,22.2v0l2.5-2.8l0,0l1.9,0.9c0.8,0.4,1.8,0.4,2.6,0c0.7-0.3,1.3-1,1.6-1.7l0.9-2.3H97l0,0l0.9,2.3
			c0.3,0.8,0.9,1.4,1.6,1.7c0.8,0.4,1.8,0.4,2.6,0l1.9-0.9c0,0,0,0,0,0s1.8,1.8,2.5,2.8v0l-0.9,2.4c-0.3,0.7-0.3,1.5,0,2.2l0.2,0.5
			c0.3,0.8,0.9,1.4,1.6,1.8l2,0.9l0,0V34z"/>
		<g>
			<path d="M91.9,28.7c0-0.2-0.1-0.3-0.2-0.5c-0.1-0.1-0.3-0.2-0.5-0.2c-0.2,0-0.3,0.1-0.5,0.2l-3.3,3.3c-0.1,0.1-0.2,0.3-0.2,0.5
				c0,0.2,0.1,0.3,0.2,0.5l3.3,3.3c0.3,0.3,0.7,0.3,0.9,0s0.3-0.7,0-0.9L88.9,32l2.8-2.8C91.8,29,91.9,28.9,91.9,28.7z"/>
			<path d="M99.7,28.2c-0.3-0.3-0.7-0.3-0.9,0c-0.3,0.3-0.3,0.7,0,0.9l2.8,2.8l-2.8,2.8c-0.2,0.2-0.2,0.4-0.2,0.6s0.2,0.4,0.5,0.5
				c0.2,0.1,0.5,0,0.6-0.2l3.3-3.3c0.1-0.1,0.2-0.3,0.2-0.5s-0.1-0.3-0.2-0.5L99.7,28.2z"/>
			<path d="M96.7,26.7c-0.4-0.1-0.7,0.1-0.8,0.5l-2.7,9.3c-0.1,0.4,0.1,0.7,0.5,0.8c0.1,0,0.1,0,0.2,0c0.3,0,0.6-0.2,0.6-0.5
				l2.7-9.3C97.3,27.2,97.1,26.8,96.7,26.7z"/>
		</g>
	</g>
	<path d="M172.5,18.1c-2.2-4-5.4-7.1-9.6-9.3c-4.2-2.2-9.1-3.3-14.8-3.3h-20v53h20c5.7,0,10.6-1.1,14.7-3.4c4.2-2.3,7.4-5.4,9.6-9.4
		c2.2-4,3.3-8.6,3.3-13.8C175.8,26.7,174.7,22.1,172.5,18.1z M160.1,43.8h-19.3V19l13.8,0l5.5,5.1V43.8z"/>
</g>
</svg>
